<svg xmlns="http://www.w3.org/2000/svg" fill="none" viewBox="0 0 14 14" width="40" height="40" role="img"><path class="ic-a-financial_svg__ic_a_financial" fill="#FDDE01" d="M3.59 12.072H2.349a.18.18 0 0 1-.181-.18v-2.84c0-.1.082-.18.18-.18H3.59c.1 0 .18.082.18.18v2.84a.18.18 0 0 1-.18.18Zm3.552-3.2a2.615 2.615 0 1 0 0-5.229 2.615 2.615 0 0 0 0 5.23Z"></path><path class="ic-a-financial_svg__ic_a_financial" fill="#000" d="m7.294 12.347-1.888-.508a57.07 57.07 0 0 1-.672-.187.66.66 0 0 0-.504.054c-.065.034-.127.076-.195.104-.12.05-.204.11-.193.264.007.104-.076.169-.183.166-.487-.01-.975-.02-1.462-.037-.139-.005-.201-.082-.197-.229.023-.87.05-1.742.073-2.613.006-.181.008-.362.015-.543.005-.163.07-.226.235-.223l1.363.034c.203.006.259.07.252.276-.003.069 0 .139 0 .21.16-.056.315-.121.476-.166.582-.16 1.155-.12 1.69.159a2.28 2.28 0 0 0 1.083.265c.34-.002.68.019 1.019.025.452.008.802.197 1.044.58l.03.044.299-.14c.397-.186.792-.378 1.19-.56a.936.936 0 0 1 1.167.33c.101.15.085.244-.067.341-1.075.696-2.15 1.393-3.227 2.085-.234.15-.504.206-.775.248-.035.006-.07.015-.107.023-.156-.002-.311-.002-.466-.002Zm-3.423-.891c.014.002.023.004.029.003a.824.824 0 0 0 .089-.045c.29-.174.595-.199.916-.103.354.104.709.204 1.065.3.434.118.864.256 1.305.338.414.079.835.02 1.196-.21.998-.631 1.985-1.279 2.977-1.921l.087-.062c-.189-.158-.402-.192-.611-.1-.135.06-.267.125-.401.188l-1.122.531c.005.052.012.1.016.146.013.204-.056.278-.26.274a154.717 154.717 0 0 1-2.126-.06c-.14-.006-.222-.108-.193-.225.025-.1.095-.146.23-.143l1.562.042c.13.004.257.001.387 0-.04-.327-.368-.618-.723-.636-.232-.011-.465-.015-.697-.022-.27-.01-.54-.01-.808-.028-.31-.02-.579-.16-.854-.288-.655-.307-1.3-.272-1.93.083-.063.035-.088.075-.09.147-.013.576-.032 1.152-.048 1.728-.001.023.002.043.004.063Zm-.39.39.08-2.855H2.455l-.078 2.854h1.104Z"></path><path class="ic-a-financial_svg__ic_a_financial" fill="#000" d="M7.116 8.874a2.7 2.7 0 0 1-2.7-2.697 2.702 2.702 0 0 1 5.402 0 2.7 2.7 0 0 1-2.702 2.697Zm.003-.37a2.328 2.328 0 0 0 2.324-2.339 2.324 2.324 0 0 0-2.325-2.312 2.325 2.325 0 1 0 .001 4.65Z"></path><path class="ic-a-financial_svg__ic_a_financial" fill="#fff" d="M9.108 5.197a1.35 1.35 0 1 0 0-2.7 1.35 1.35 0 0 0 0 2.7Z"></path><path class="ic-a-financial_svg__ic_a_financial" fill="#000" d="M7.3 2.064c0 .291.002.583-.001.875-.002.15-.126.238-.253.186-.091-.039-.116-.115-.116-.207.002-.296 0-.59 0-.886l.001-.81c0-.14.074-.225.189-.222.111.003.178.083.179.221.003.281 0 .562 0 .843Zm-1.396.476c0 .133.003.266-.001.399-.003.123-.08.203-.189.2-.104-.004-.177-.08-.178-.2a40.755 40.755 0 0 1 0-.808c0-.124.08-.203.189-.2.104.004.175.08.178.2.004.136 0 .273 0 .41Zm.79 3.017c.001.21.15.381.36.412.087.014.177.015.263.037a.79.79 0 0 1 .593.706.778.778 0 0 1-.462.776c-.125.05-.19.1-.176.247.011.1-.08.174-.175.176-.095.002-.173-.068-.185-.169a.326.326 0 0 1-.003-.088c.013-.084-.023-.12-.1-.153-.29-.124-.447-.352-.485-.662-.017-.142.054-.243.17-.252.113-.008.19.073.203.213a.416.416 0 0 0 .428.391.416.416 0 0 0 .414-.383.411.411 0 0 0-.366-.45c-.17-.02-.337-.035-.484-.135-.258-.174-.385-.419-.362-.725a.754.754 0 0 1 .486-.672c.08-.034.108-.073.098-.153a.327.327 0 0 1 .003-.088.183.183 0 0 1 .181-.162c.095 0 .189.074.178.172-.016.148.057.192.178.246.285.123.43.36.461.666.013.133-.063.23-.177.235-.107.005-.183-.076-.195-.208-.023-.237-.209-.41-.434-.4a.419.419 0 0 0-.412.423Z"></path><path class="ic-a-financial_svg__ic_a_financial" fill="#FDDE01" d="M9.101 4.799a.963.963 0 1 0 0-1.926.963.963 0 0 0 0 1.926Z"></path><path class="ic-a-financial_svg__ic_a_financial" fill="#000" d="M9.262 2.416c.166.051.343.083.498.16.371.18.609.483.722.881.026.092-.003.158-.074.177-.075.02-.129-.016-.158-.11-.172-.543-.612-.871-1.158-.865-.578.006-1.09.47-1.144 1.04-.058.607.33 1.155.91 1.28.63.138 1.24-.24 1.399-.867a.566.566 0 0 1 .015-.054c.024-.07.085-.105.152-.085.062.018.097.077.082.147a1.32 1.32 0 0 1-.305.627c-.405.45-.907.616-1.488.442-.58-.174-.919-.585-1.003-1.185-.106-.757.449-1.47 1.207-1.574.019-.003.035-.01.054-.015h.29Z"></path><path class="ic-a-financial_svg__ic_a_financial" fill="#000" d="m9.04 4.025.484-.484.045-.045c.052-.049.11-.052.154-.01.046.045.045.105-.01.16l-.36.36c-.075.075-.15.152-.227.226-.062.06-.114.06-.175 0-.146-.143-.29-.289-.434-.434-.055-.056-.059-.113-.014-.16.046-.046.107-.041.165.016l.372.371Z"></path><path class="ic-a-financial_svg__ic_a_financial" fill="#FDDE01" d="M2.91 10.248h.2c.047 0 .085.038.085.085a.085.085 0 0 1-.085.084h-.2a.085.085 0 0 1-.084-.084c0-.047.038-.085.085-.085Z"></path></svg>